<svg width="24" height="24" viewBox="0 0 24 24" fill="none" xmlns="http://www.w3.org/2000/svg">
<path d="M12 23C18.0751 23 23 18.0751 23 12C23 5.92487 18.0751 1 12 1C5.92487 1 1 5.92487 1 12C1 18.0751 5.92487 23 12 23Z" fill="#3399FF" style="fill:#3399FF;fill:color(display-p3 0.2000 0.6000 1.0000);fill-opacity:1;"/>
<path fill-rule="evenodd" clip-rule="evenodd" d="M7.77183 11.7617L9.45419 13.5171C9.64525 13.7165 9.96176 13.7232 10.1611 13.5322C10.1648 13.5287 10.1684 13.5251 10.1719 13.5215L15.8202 7.77096C16.2661 7.31694 16.9957 7.3104 17.4497 7.75633C17.4522 7.75875 17.4546 7.76118 17.457 7.76361C17.912 8.21862 17.9147 8.95551 17.463 9.4138L10.8859 16.0869C10.3043 16.6769 9.35462 16.6838 8.7646 16.1023C8.75719 16.095 8.74985 16.0876 8.74259 16.0801L6.134 13.3997C5.68439 12.9377 5.6894 12.2002 6.14524 11.7444C6.58974 11.2999 7.31041 11.2999 7.7549 11.7444C7.76061 11.7501 7.76625 11.7558 7.77183 11.7617Z" fill="white" style="fill:white;fill-opacity:1;"/>
</svg>
